<?xml version="1.0" encoding="utf-8"?>
<!-- Generator: Adobe Illustrator 22.1.0, SVG Export Plug-In . SVG Version: 6.00 Build 0)  -->
<svg version="1.1" xmlns="http://www.w3.org/2000/svg" xmlns:xlink="http://www.w3.org/1999/xlink" x="0px" y="0px"
	 viewBox="0 0 100 100" style="enable-background:new 0 0 100 100;" xml:space="preserve">
<style type="text/css">
	.st0{fill:none;stroke:#000000;stroke-miterlimit:10;}
</style>
<g id="Capa_1">
</g>
<g id="Capa_2">
	<g>
		<g>
			<path class="st0" d="M83.1,98H16.9C9.5,98,3.5,92,3.5,84.6V15.4C3.5,8,9.5,2,16.9,2h66.2c7.4,0,13.4,6,13.4,13.4v69.2
				C96.5,92,90.5,98,83.1,98z"/>
			<path class="st0" d="M3.5,28.5c0,0,17.1-5,25.9,11.7c0,0-5.9-19.2-25.9-19.8"/>
			<path class="st0" d="M96.5,28.5c0,0-18.9-5-27.7,11.7c0,0,6.1-19.8,27.7-19.8"/>
			<path class="st0" d="M3.5,86.3C3.5,86.3,49,62.8,49,2c0,0-4,61.9,47.5,85.3"/>
		</g>
		<path class="st0" d="M9.9,97.1c0,0,13.7-21.9,37.7-21.9s39.2,22.7,39.2,22.7"/>
	</g>
</g>
</svg>
