<?xml version="1.0" encoding="utf-8"?>
<!-- Generator: Adobe Illustrator 22.1.0, SVG Export Plug-In . SVG Version: 6.00 Build 0)  -->
<svg version="1.1" id="Capa_1" xmlns="http://www.w3.org/2000/svg" xmlns:xlink="http://www.w3.org/1999/xlink" x="0px" y="0px"
	 viewBox="0 0 150 150" style="enable-background:new 0 0 150 150;" xml:space="preserve">
<style type="text/css">
	.st0{fill:none;stroke:#ECE3D2;stroke-miterlimit:10;}
	.st1{fill:#ECE3D2;}
</style>
<g>
	<g>
		<circle class="st0" cx="75" cy="75" r="60"/>
		<path class="st1" d="M102.5,109l-23.8-9.8l23.8-9.8c0.8-0.3,1.2-1.2,0.9-1.9s-1.2-1.2-1.9-0.9l-26.7,11L48.1,86.7
			c-0.8-0.3-1.6,0.1-1.9,0.9c-0.3,0.8,0.1,1.6,0.9,1.9l23.8,9.8L47,109c-0.8,0.3-1.2,1.2-0.9,1.9c0.2,0.6,0.8,1,1.3,1
			c0.2,0,0.4,0,0.6-0.1l26.7-11l26.6,11c0.2,0.1,0.4,0.1,0.6,0.1c0.6,0,1.2-0.4,1.3-1C103.7,110.1,103.3,109.3,102.5,109z"/>
		<g>
			<path class="st0" d="M69.8,86.5c-15.9-7.7-18.4-21.2-5-38.4c0.2,4.6,0.6,9,3.3,11.5c-0.8-4-4-18.2,13.6-30.2
				c-5.4,25.1,32.7,32.1,2.7,56.8c8-16.3-5.5-15.7-5.9-30.8c-6.1,5.9-6.7,12.1-4.4,19.1c-2.5-1-5-3.4-6.5-6.7
				C64.8,74.6,67.3,81.7,69.8,86.5z"/>
		</g>
	</g>
</g>
</svg>
