<?xml version="1.0" encoding="utf-8"?>
<!-- Generator: Adobe Illustrator 22.1.0, SVG Export Plug-In . SVG Version: 6.00 Build 0)  -->
<svg version="1.1" id="Capa_1" xmlns="http://www.w3.org/2000/svg" xmlns:xlink="http://www.w3.org/1999/xlink" x="0px" y="0px"
	 viewBox="0 0 150 150" style="enable-background:new 0 0 150 150;" xml:space="preserve">
<style type="text/css">
	.st0{fill:none;stroke:#ECE3D2;stroke-miterlimit:10;}
	.st1{fill:#ECE3D2;}
</style>
<g>
	<path class="st0" d="M75,135c-33.1,0-60-26.9-60-60s26.9-60,60-60s60,26.9,60,60S108.1,135,75,135"/>
	<path class="st1" d="M47.1,75.3c-4.5,0-8.2,3.7-8.2,8.2c0,4.5,3.7,8.2,8.2,8.2s8.2-3.7,8.2-8.2C55.3,79,51.6,75.3,47.1,75.3z
		 M47.1,89.8c-3.4,0-6.2-2.8-6.2-6.2c0-3.4,2.8-6.2,6.2-6.2s6.2,2.8,6.2,6.2C53.3,87,50.5,89.8,47.1,89.8z"/>
	<path class="st1" d="M103.7,67.3c-1.8,0-3.6,0.3-5.3,0.9l-2.7-6.6v0v0l-6.4-15.4c0,0,0,0,0,0c-0.1-0.1-0.1-0.2-0.2-0.3
		c-0.1-0.1-0.1-0.1-0.2-0.1c0,0-0.1-0.1-0.1-0.1c-0.1-0.1-0.3-0.1-0.4-0.1c0,0,0,0,0,0h-6.7v-2c0-0.6-0.5-1-1-1h-8.9
		c-0.6,0-1,0.5-1,1v6.1c0,0.6,0.5,1,1,1h8.9c0.6,0,1-0.5,1-1v-2h6l5.7,13.8L62.9,74.1l-6.8-17.5h7.6c0.6,0,1-0.5,1-1v-6.1
		c0-0.6-0.5-1-1-1H50.1c-0.6,0-1,0.5-1,1v6.1c0,0.6,0.5,1,1,1h3.8l7.1,18.3L60.9,75c-2.9-4.6-8-7.7-13.8-7.7
		c-9,0-16.3,7.3-16.3,16.3s7.3,16.3,16.3,16.3s16.3-7.3,16.3-16.3c0-2.4-0.5-4.7-1.5-6.8l32.3-13.5l2.3,5.7
		c-5.4,2.7-9.2,8.2-9.2,14.6c0,9,7.3,16.3,16.3,16.3c9,0,16.3-7.3,16.3-16.3S112.7,67.3,103.7,67.3z M79.7,48.6h-6.8v-4h6.8
		L79.7,48.6z M51.1,50.6h11.6v4h-8c0,0,0,0,0,0h-3.5L51.1,50.6L51.1,50.6z M47.1,97.8c-7.9,0-14.3-6.4-14.3-14.3
		c0-7.9,6.4-14.3,14.3-14.3s14.3,6.4,14.3,14.3S55,97.8,47.1,97.8z M103.7,97.8c-7.9,0-14.3-6.4-14.3-14.3c0-5.6,3.2-10.4,7.9-12.7
		l5.4,13.1c0.2,0.4,0.5,0.6,0.9,0.6c0.1,0,0.3,0,0.4-0.1c0.5-0.2,0.8-0.8,0.6-1.3L99.2,70c1.4-0.5,2.9-0.7,4.5-0.7
		c7.9,0,14.3,6.4,14.3,14.3C118,91.4,111.6,97.8,103.7,97.8z"/>
	<path class="st1" d="M73.5,76.2c-3.4,0-6.2,2.8-6.2,6.2s2.8,6.2,6.2,6.2c3.4,0,6.2-2.8,6.2-6.2S76.9,76.2,73.5,76.2z M73.5,86.4
		c-2.3,0-4.1-1.8-4.1-4.1c0-2.3,1.8-4.1,4.1-4.1c2.3,0,4.1,1.8,4.1,4.1C77.6,84.6,75.8,86.4,73.5,86.4z"/>
</g>
</svg>
