<?xml version="1.0" encoding="utf-8"?>
<!-- Generator: Adobe Illustrator 22.1.0, SVG Export Plug-In . SVG Version: 6.00 Build 0)  -->
<svg version="1.1" id="Capa_1" xmlns="http://www.w3.org/2000/svg" xmlns:xlink="http://www.w3.org/1999/xlink" x="0px" y="0px"
	 viewBox="0 0 150 150" style="enable-background:new 0 0 150 150;" xml:space="preserve">
<style type="text/css">
	.st0{fill:none;stroke:#ECE3D2;stroke-miterlimit:10;}
	.st1{fill:none;stroke:#ECE3D2;stroke-linecap:round;stroke-miterlimit:10;}
</style>
<g>
	<g>
		<circle class="st0" cx="75" cy="75" r="60"/>
		<g>
			<path class="st0" d="M102.5,56.5c0.3-1-0.5-1.9-1.6-1.9h-4.4H53.4h-4.4c-1.1,0-1.9,0.9-1.6,1.9L56,87.2c0.2,0.7,0.8,1.1,1.6,1.1
				h0c0.8,0,1.5,0.6,1.6,1.3l4.1,25.2c0.1,0.7,0.8,1.3,1.6,1.3h20.1c0.8,0,1.5-0.6,1.6-1.3l4.1-25.2c0.1-0.7,0.8-1.3,1.6-1.3h0
				c0.8,0,1.4-0.5,1.6-1.1L102.5,56.5z"/>
			<g>
				<path class="st0" d="M67.4,88.6l-5.8-5.8c-0.9-0.9-0.9-2.5,0-3.4l5.8-5.8c0.9-0.9,2.5-0.9,3.4,0l5.8,5.8c0.9,0.9,0.9,2.5,0,3.4
					l-5.8,5.8C69.8,89.5,68.3,89.5,67.4,88.6z"/>
				<line class="st1" x1="69.1" y1="77.1" x2="71.6" y2="79.6"/>
				<line class="st1" x1="64.1" y1="81.6" x2="66.6" y2="79.1"/>
			</g>
			<g>
				<path class="st0" d="M91.6,69.8l-5.8,5.8c-0.9,0.9-2.5,0.9-3.4,0l-5.8-5.8c-0.9-0.9-0.9-2.5,0-3.4l5.8-5.8
					c0.9-0.9,2.5-0.9,3.4,0l5.8,5.8C92.5,67.3,92.5,68.9,91.6,69.8z"/>
				<line class="st1" x1="80.1" y1="68.1" x2="82.6" y2="65.6"/>
				<line class="st1" x1="84.6" y1="73.1" x2="82.1" y2="70.6"/>
			</g>
			<g>
				<path class="st0" d="M72.6,43.8l-5.8,5.8c-0.9,0.9-2.5,0.9-3.4,0l-5.8-5.8c-0.9-0.9-0.9-2.5,0-3.4l5.8-5.8
					c0.9-0.9,2.5-0.9,3.4,0l5.8,5.8C73.5,41.3,73.5,42.9,72.6,43.8z"/>
				<line class="st1" x1="61.1" y1="42.1" x2="63.6" y2="39.6"/>
				<line class="st1" x1="65.6" y1="47.1" x2="63.1" y2="44.6"/>
			</g>
			<g>
				<path class="st0" d="M67.6,107.2V99c0-1.3,1.1-2.4,2.4-2.4l8.2,0c1.3,0,2.4,1.1,2.4,2.4v8.2c0,1.3-1.1,2.4-2.4,2.4H70
					C68.7,109.6,67.6,108.5,67.6,107.2z"/>
				<line class="st1" x1="76.9" y1="100.3" x2="76.9" y2="103.8"/>
				<line class="st1" x1="70.2" y1="99.9" x2="73.7" y2="99.9"/>
			</g>
		</g>
	</g>
</g>
</svg>
