<?xml version="1.0" encoding="utf-8"?>
<!-- Generator: Adobe Illustrator 22.1.0, SVG Export Plug-In . SVG Version: 6.00 Build 0)  -->
<svg version="1.1" id="Capa_1" xmlns="http://www.w3.org/2000/svg" xmlns:xlink="http://www.w3.org/1999/xlink" x="0px" y="0px"
	 viewBox="0 0 150 150" style="enable-background:new 0 0 150 150;" xml:space="preserve">
<style type="text/css">
	.st0{fill:none;stroke:#ECE3D2;stroke-miterlimit:10;}
	.st1{fill:#ECE3D2;}
</style>
<g>
	<g>
		<circle class="st0" cx="75" cy="75" r="60"/>
		<path class="st1" d="M68.5,62.9c-0.8,0-1.6,0.5-2.1,1.3c-0.5,0.8-0.8,1.8-0.8,2.9v32.4c0,1.1,0.3,2.1,0.8,2.9
			c0.5,0.8,1.3,1.3,2.1,1.3h13c0.8,0,1.6-0.5,2.1-1.3c0.5-0.8,0.8-1.8,0.8-2.9V67c0-1.1-0.3-2.1-0.8-2.9c-0.5-0.8-1.3-1.3-2.1-1.3
			h-6.1v-4.5c3-1.8,4.1-4.4,3.9-7.4c-0.2-3.1-1.8-6.6-3.9-10.3c-0.1-0.1-0.2-0.2-0.3-0.2h0c0,0,0,0,0,0l0,0c0,0,0,0,0,0c0,0,0,0,0,0
			c-0.1,0-0.3,0.1-0.3,0.2c-2.1,3.7-3.7,7.2-3.9,10.3c-0.2,3,0.9,5.6,3.9,7.4v4.5L68.5,62.9L68.5,62.9z M74.6,51.5
			C74.6,51.5,74.6,51.5,74.6,51.5v6c-2.5-1.6-3.3-3.8-3.1-6.5c0.2-2.7,1.6-6,3.5-9.4l0,0c2,3.5,3.3,6.7,3.5,9.4
			c0.2,2.7-0.6,4.9-3.1,6.5v-6c0-0.2-0.2-0.4-0.4-0.4C74.8,51.1,74.6,51.3,74.6,51.5z M81.5,63.6c0.5,0,1.1,0.3,1.5,0.9
			c0.4,0.6,0.7,1.5,0.7,2.5v32.4c0,1-0.3,1.8-0.7,2.5c-0.4,0.6-0.9,0.9-1.5,0.9h-13c-0.5,0-1.1-0.3-1.5-0.9
			c-0.4-0.6-0.7-1.5-0.7-2.5V67c0-1,0.3-1.8,0.7-2.5c0.4-0.6,0.9-0.9,1.5-0.9H81.5z"/>
		<path class="st1" d="M47.4,70.5c-0.7,0-1.3,0.4-1.7,1.1C45.2,72.2,45,73,45,73.9v26.2c0,0.9,0.2,1.7,0.7,2.4
			c0.4,0.6,1,1.1,1.7,1.1h10.4c0.7,0,1.3-0.4,1.7-1.1s0.7-1.5,0.7-2.4V73.9c0-0.9-0.2-1.7-0.7-2.4s-1-1.1-1.7-1.1H53v-3.5
			c2.4-1.4,3.3-3.6,3.1-6c-0.2-2.5-1.4-5.3-3.1-8.3c-0.1-0.1-0.2-0.2-0.3-0.2c0,0,0,0,0,0c0,0,0,0,0,0l0,0c0,0,0,0,0,0c0,0,0,0,0,0
			h0c0,0,0,0,0,0c-0.1,0-0.3,0.1-0.3,0.2c-1.7,3-2.9,5.8-3.1,8.3c-0.2,2.4,0.7,4.6,3.1,6v3.5L47.4,70.5L47.4,70.5z M49.9,61
			c0.2-2.2,1.2-4.7,2.7-7.5c1.5,2.8,2.6,5.3,2.7,7.5c0.2,2.1-0.5,3.8-2.4,5.1v-4.7c0-0.2-0.2-0.4-0.4-0.4s-0.4,0.2-0.4,0.4
			c0,0,0,0,0,0v4.7C50.3,64.8,49.7,63.1,49.9,61z M57.8,71.2c0.4,0,0.8,0.2,1.1,0.7c0.3,0.5,0.5,1.2,0.5,2v26.2c0,0.8-0.2,1.5-0.5,2
			c-0.3,0.5-0.7,0.7-1.1,0.7H47.4c-0.4,0-0.8-0.2-1.1-0.7s-0.5-1.2-0.5-2V73.9c0-0.8,0.2-1.5,0.5-2c0.3-0.5,0.7-0.7,1.1-0.7H57.8z"
			/>
		<path class="st1" d="M102.6,69.5h-5v-3.6c2.5-1.5,3.4-3.7,3.2-6.2c-0.2-2.6-1.5-5.5-3.2-8.6c-0.1-0.1-0.2-0.2-0.3-0.2h0h0
			c0,0,0,0,0,0v0l0,0c0,0,0,0,0,0h0c-0.1,0-0.3,0.1-0.3,0.2c-1.8,3.1-3,6-3.2,8.6c-0.2,2.5,0.7,4.7,3.2,6.2v3.6h-5
			c-0.7,0-1.4,0.4-1.8,1.1c-0.4,0.6-0.7,1.5-0.7,2.4v27c0,0.9,0.2,1.8,0.7,2.4c0.4,0.6,1.1,1.1,1.8,1.1h10.7c0.7,0,1.4-0.4,1.8-1.1
			c0.4-0.6,0.7-1.5,0.7-2.4V73c0-0.9-0.2-1.8-0.7-2.4C103.9,70,103.3,69.5,102.6,69.5z M94.4,59.7c0.2-2.2,1.2-4.9,2.8-7.7l0,0
			c1.6,2.9,2.7,5.5,2.8,7.7c0.2,2.2-0.5,3.9-2.4,5.3v-4.9c0-0.2-0.2-0.4-0.4-0.4c-0.2,0-0.4,0.2-0.4,0.4c0,0,0,0,0,0V65
			C94.9,63.7,94.2,61.9,94.4,59.7z M104.3,100c0,0.8-0.2,1.5-0.6,2c-0.3,0.5-0.7,0.8-1.2,0.8H91.9c-0.4,0-0.8-0.3-1.2-0.8
			c-0.3-0.5-0.5-1.2-0.5-2V73c0-0.8,0.2-1.5,0.6-2c0.3-0.5,0.7-0.8,1.2-0.8h10.7c0.4,0,0.8,0.3,1.2,0.8c0.3,0.5,0.6,1.2,0.6,2
			L104.3,100L104.3,100z"/>
	</g>
</g>
</svg>
