<?xml version="1.0" encoding="utf-8"?>
<!-- Generator: Adobe Illustrator 22.1.0, SVG Export Plug-In . SVG Version: 6.00 Build 0)  -->
<svg version="1.1" id="Capa_1" xmlns="http://www.w3.org/2000/svg" xmlns:xlink="http://www.w3.org/1999/xlink" x="0px" y="0px"
	 viewBox="0 0 150 150" style="enable-background:new 0 0 150 150;" xml:space="preserve">
<style type="text/css">
	.st0{fill:none;stroke:#ECE3D2;stroke-miterlimit:10;}
	.st1{fill:#ECE3D2;}
</style>
<g>
	<g>
		<circle class="st0" cx="75" cy="75" r="60"/>
		<g>
			<path class="st1" d="M105.3,63.8H44.5c-0.2,0-0.4-0.2-0.4-0.4c0-0.2,0.2-0.4,0.4-0.4h60.8c0.2,0,0.4,0.2,0.4,0.4
				C105.7,63.7,105.5,63.8,105.3,63.8z"/>
		</g>
		<g>
			<path class="st1" d="M105.3,85.5H44.5c-0.2,0-0.4-0.2-0.4-0.4s0.2-0.4,0.4-0.4h60.8c0.2,0,0.4,0.2,0.4,0.4S105.5,85.5,105.3,85.5
				z"/>
		</g>
		<g>
			<path class="st1" d="M55.2,55c-0.1,0-0.2,0-0.3-0.1c-0.1-0.1-0.1-0.4,0-0.5c2.6-2.6,5.6-4.6,8.9-6c3.5-1.5,7.2-2.2,10.9-2.2
				c0.2,0,0.4,0.2,0.4,0.4c0,0.2-0.2,0.4-0.4,0.4c-3.7,0-7.3,0.7-10.7,2.2c-3.3,1.4-6.2,3.4-8.7,5.9C55.4,55,55.3,55,55.2,55z"/>
		</g>
		<g>
			<g>
				<line class="st1" x1="89.9" y1="91.9" x2="89.9" y2="91.9"/>
			</g>
			<g>
				<line class="st1" x1="82.4" y1="91.9" x2="82.4" y2="91.9"/>
			</g>
			<g>
				<line class="st1" x1="74.9" y1="91.9" x2="74.9" y2="91.9"/>
			</g>
			<g>
				<line class="st1" x1="67.4" y1="91.9" x2="67.4" y2="91.9"/>
			</g>
			<g>
				<line class="st1" x1="82.4" y1="99.3" x2="82.4" y2="99.3"/>
			</g>
			<g>
				<line class="st1" x1="74.9" y1="99.3" x2="74.9" y2="99.3"/>
			</g>
			<g>
				<line class="st1" x1="67.4" y1="99.3" x2="67.4" y2="99.3"/>
			</g>
			<g>
				<line class="st1" x1="82.4" y1="91.9" x2="82.4" y2="91.9"/>
			</g>
			<g>
				<line class="st1" x1="74.9" y1="91.9" x2="74.9" y2="91.9"/>
			</g>
			<g>
				<line class="st1" x1="67.4" y1="91.9" x2="67.4" y2="91.9"/>
			</g>
			<g>
				<line class="st1" x1="59.9" y1="91.9" x2="59.9" y2="91.9"/>
			</g>
		</g>
		<g>
			<path class="st1" d="M74.9,106.9c-18,0-32.6-14.6-32.6-32.6s14.6-32.6,32.6-32.6s32.6,14.6,32.6,32.6S92.9,106.9,74.9,106.9z
				 M74.9,42.4C57.3,42.4,43,56.7,43,74.3s14.3,31.9,31.9,31.9s31.9-14.3,31.9-31.9S92.5,42.4,74.9,42.4z"/>
		</g>
	</g>
</g>
</svg>
