<?xml version="1.0" encoding="utf-8"?>
<!-- Generator: Adobe Illustrator 22.1.0, SVG Export Plug-In . SVG Version: 6.00 Build 0)  -->
<svg version="1.1" id="Capa_1" xmlns="http://www.w3.org/2000/svg" xmlns:xlink="http://www.w3.org/1999/xlink" x="0px" y="0px"
	 viewBox="0 0 150 150" style="enable-background:new 0 0 150 150;" xml:space="preserve">
<style type="text/css">
	.st0{fill:none;stroke:#ECE3D2;stroke-miterlimit:10;}
	.st1{fill:#ECE3D2;}
</style>
<g>
	<g>
		<circle class="st0" cx="75" cy="75" r="60"/>
		<g>
			<g>
				<path class="st1" d="M105.2,78.8c0-16.3-13.1-29.6-29.3-30v-5.9h6.6v-1.5H67.8v1.5h6.6v5.9C58.1,49.1,45,62.4,45,78.8v0.7h60.1
					V78.8z M46.5,78c0.4-15.4,13.1-27.9,28.6-27.9s28.2,12.4,28.6,27.9H46.5z"/>
				<path class="st1" d="M111.8,92.7c-3.6,0-6.6-3-6.6-6.6v-0.7H45v0.7c0,3.6-3,6.6-6.6,6.6h-0.7v7.3h74.8v-7.3H111.8z M111,98.6
					H39.2v-4.4c3.9-0.4,6.9-3.4,7.3-7.3h57.2c0.4,3.9,3.4,6.9,7.3,7.3L111,98.6z"/>
			</g>
		</g>
	</g>
</g>
</svg>
