<?xml version="1.0" encoding="utf-8"?>
<!-- Generator: Adobe Illustrator 22.1.0, SVG Export Plug-In . SVG Version: 6.00 Build 0)  -->
<svg version="1.1" id="Capa_1" xmlns="http://www.w3.org/2000/svg" xmlns:xlink="http://www.w3.org/1999/xlink" x="0px" y="0px"
	 viewBox="0 0 150 150" style="enable-background:new 0 0 150 150;" xml:space="preserve">
<style type="text/css">
	.st0{fill:none;stroke:#ECE3D2;stroke-miterlimit:10;}
	.st1{fill:#ECE3D2;}
</style>
<g>
	<g>
		<circle class="st0" cx="75" cy="75" r="60"/>
		<g>
			<path class="st1" d="M113.3,52.9h-3.5V49c0-0.2-0.2-0.5-0.4-0.6c-10.7-4-21.5-4-32.2-0.1c-10.7-4-21.5-3.9-32.2,0.1
				c-0.2,0.1-0.4,0.3-0.4,0.6v3.9h-3.5c-1.4,0-2.6,1.1-2.6,2.6v41.9c0,1.4,1.1,2.6,2.6,2.6h29.2c0.9,0,1.7,0.6,2.1,1.5
				c0.8,2,2.7,3.2,4.9,3.2c2.1,0,4-1.3,4.9-3.2c0.4-0.9,1.2-1.5,2.1-1.5h29.2c1.4,0,2.6-1.2,2.6-2.6V55.4
				C115.8,54,114.7,52.9,113.3,52.9z M77.8,49.4c10.2-3.7,20.6-3.7,30.8,0v43.2c-5.1-1.8-10.3-2.7-15.4-2.7
				c-5.2,0-10.3,0.9-15.4,2.7V49.4z M45.8,49.4c10.2-3.7,20.6-3.7,30.8,0v43.2c-5.1-1.8-10.3-2.7-15.4-2.7s-10.3,0.9-15.4,2.7V49.4z
				 M114.6,97.3c0,0.8-0.6,1.4-1.4,1.4H84.1c-1.4,0-2.6,0.8-3.2,2.2c-0.6,1.5-2.1,2.5-3.8,2.5c-1.6,0-3.1-1-3.8-2.5
				c-0.6-1.3-1.8-2.2-3.2-2.2H41.1c-0.8,0-1.4-0.6-1.4-1.4V55.4c0-0.8,0.6-1.4,1.4-1.4h3.5v39.4c0,0.2,0.1,0.4,0.3,0.5
				c0.2,0.1,0.4,0.1,0.5,0.1c10.5-3.9,21.1-3.9,31.6,0l0,0c0.1,0,0.1,0,0.2,0c0,0,0,0,0,0c0,0,0,0,0,0c0,0,0.1,0,0.1,0c0,0,0,0,0,0
				c0,0,0,0,0,0c10.5-3.9,21.1-3.9,31.6,0c0.1,0,0.1,0,0.2,0c0.1,0,0.2,0,0.3-0.1c0.2-0.1,0.3-0.3,0.3-0.5V54.1h3.5
				c0.8,0,1.4,0.6,1.4,1.4V97.3z"/>
			<path class="st1" d="M84.7,59.2c0.1,0,0.1,0,0.2,0c5.7-1.8,11.5-1.8,17.2,0c0.3,0.1,0.6-0.1,0.7-0.4c0.1-0.3-0.1-0.6-0.4-0.7
				c-6-1.9-12-1.9-18,0c-0.3,0.1-0.5,0.4-0.4,0.7C84.3,59,84.5,59.2,84.7,59.2z"/>
			<path class="st1" d="M84.7,67.1c0.1,0,0.1,0,0.2,0c5.7-1.8,11.5-1.8,17.2,0c0.3,0.1,0.6-0.1,0.7-0.4c0.1-0.3-0.1-0.6-0.4-0.7
				c-6-1.9-12-1.9-18,0c-0.3,0.1-0.5,0.4-0.4,0.7C84.3,66.9,84.5,67.1,84.7,67.1z"/>
			<path class="st1" d="M84.7,75c0.1,0,0.1,0,0.2,0c5.7-1.8,11.5-1.8,17.2,0c0.3,0.1,0.6-0.1,0.7-0.4c0.1-0.3-0.1-0.6-0.4-0.7
				c-6-1.9-12-1.9-18,0c-0.3,0.1-0.5,0.4-0.4,0.7C84.3,74.8,84.5,75,84.7,75z"/>
			<path class="st1" d="M102.2,82.9c0.3,0.1,0.6-0.1,0.7-0.4c0.1-0.3-0.1-0.6-0.4-0.7c-6-1.9-12-1.9-18,0c-0.3,0.1-0.5,0.4-0.4,0.7
				c0.1,0.3,0.3,0.4,0.6,0.4c0.1,0,0.1,0,0.2,0C90.6,81,96.4,81,102.2,82.9z"/>
			<path class="st1" d="M52.1,59.2c0.1,0,0.1,0,0.2,0c5.7-1.8,11.5-1.8,17.2,0c0.3,0.1,0.6-0.1,0.7-0.4c0.1-0.3-0.1-0.6-0.4-0.7
				c-6-1.9-12-1.9-18,0c-0.3,0.1-0.5,0.4-0.4,0.7C51.6,59,51.8,59.2,52.1,59.2z"/>
			<path class="st1" d="M52.1,67.1c0.1,0,0.1,0,0.2,0c5.7-1.8,11.5-1.8,17.2,0c0.3,0.1,0.6-0.1,0.7-0.4c0.1-0.3-0.1-0.6-0.4-0.7
				c-6-1.9-12-1.9-18,0c-0.3,0.1-0.5,0.4-0.4,0.7C51.6,66.9,51.8,67.1,52.1,67.1z"/>
			<path class="st1" d="M52.1,75c0.1,0,0.1,0,0.2,0c5.7-1.8,11.5-1.8,17.2,0c0.3,0.1,0.6-0.1,0.7-0.4c0.1-0.3-0.1-0.6-0.4-0.7
				c-6-1.9-12-1.9-18,0c-0.3,0.1-0.5,0.4-0.4,0.7C51.6,74.8,51.8,75,52.1,75z"/>
			<path class="st1" d="M70.2,82.5c0.1-0.3-0.1-0.6-0.4-0.7c-6-1.9-12-1.9-18,0c-0.3,0.1-0.5,0.4-0.4,0.7c0.1,0.3,0.3,0.4,0.6,0.4
				c0.1,0,0.1,0,0.2,0c5.7-1.8,11.5-1.8,17.2,0C69.8,83,70.1,82.8,70.2,82.5z"/>
		</g>
	</g>
</g>
</svg>
