<?xml version="1.0" encoding="utf-8"?>
<!-- Generator: Adobe Illustrator 22.1.0, SVG Export Plug-In . SVG Version: 6.00 Build 0)  -->
<svg version="1.1" id="Capa_1" xmlns="http://www.w3.org/2000/svg" xmlns:xlink="http://www.w3.org/1999/xlink" x="0px" y="0px"
	 viewBox="0 0 150 150" style="enable-background:new 0 0 150 150;" xml:space="preserve">
<style type="text/css">
	.st0{fill:none;stroke:#ECE3D2;stroke-width:0.5;stroke-miterlimit:10;}
	.st1{fill:#ECE3D2;}
	.st2{fill:none;stroke:#ECE3D2;stroke-miterlimit:10;}
</style>
<path class="st0" d="M75.4,15.3"/>
<path class="st0" d="M15.4,75.3"/>
<path class="st0" d="M75.4,135.3"/>
<g>
	<path class="st1" d="M113.6,71.8l-11.9,13.5l-61-0.1c-1,0-1.8,0.8-1.8,1.8c0,1,0.8,1.8,1.8,1.8l8.8,0l0,8.8c0,1,0.8,1.8,1.8,1.8
		c1,0,1.8-0.8,1.8-1.8l0-8.8l40.6,0l0,8.8c0,1,0.8,1.8,1.8,1.8c1,0,1.8-0.8,1.8-1.8l0-8.8l5.3,0c0.5,0,1-0.2,1.3-0.6l12.4-14.1
		c0.6-0.7,0.6-1.9-0.2-2.5C115.4,71,114.3,71.1,113.6,71.8z"/>
	<g transform="translate(0,-952.36218)">
		<path class="st0" d="M55.3,995.1c-0.2,0-0.4,0.2-0.4,0.4c0,0.1,0,0.2,0.1,0.3l4,4c0.2,0.2,0.4,0.2,0.6,0c0.2-0.2,0.2-0.4,0-0.6
			c0,0,0,0,0,0l-4-4C55.6,995.2,55.5,995.1,55.3,995.1z"/>
		<path class="st0" d="M75.3,1015.1c-0.2,0-0.4,0.2-0.4,0.4c0,0.1,0,0.2,0.1,0.3l4.1,4.1c0.2,0.2,0.4,0.2,0.6,0
			c0.2-0.2,0.2-0.4,0-0.6l-4.1-4.1C75.5,1015.2,75.4,1015.1,75.3,1015.1L75.3,1015.1z"/>
		<path class="st0" d="M67.3,990.2c-0.2,0-0.4,0.2-0.4,0.4l0,5.7c0,0.2,0.2,0.4,0.4,0.4c0.2,0,0.4-0.2,0.4-0.4c0,0,0,0,0,0l0-5.7
			C67.7,990.4,67.5,990.2,67.3,990.2C67.3,990.2,67.3,990.2,67.3,990.2z"/>
		<path class="st0" d="M67.2,1018.4c-0.2,0-0.4,0.2-0.4,0.4l0,5.7c0,0.2,0.2,0.4,0.4,0.4c0.2,0,0.4-0.2,0.4-0.4c0,0,0,0,0,0l0-5.7
			C67.7,1018.6,67.5,1018.4,67.2,1018.4C67.2,1018.4,67.2,1018.4,67.2,1018.4z"/>
		<path class="st0" d="M59.3,1015.1c-0.1,0-0.2,0-0.3,0.1l-4,4.1c-0.2,0.2-0.2,0.4,0,0.6s0.4,0.2,0.6,0c0,0,0,0,0,0l4-4.1
			c0.2-0.2,0.2-0.4,0-0.6C59.5,1015.1,59.4,1015.1,59.3,1015.1L59.3,1015.1z"/>
		<path class="st0" d="M79.3,995c-0.1,0-0.2,0-0.3,0.1l-4.1,4.1c-0.2,0.2-0.2,0.4,0,0.6c0.2,0.2,0.4,0.2,0.6,0c0,0,0,0,0,0l4.1-4.1
			c0.2-0.2,0.2-0.4,0-0.6C79.5,995.1,79.4,995,79.3,995z"/>
		<path class="st0" d="M50.3,1007.1c-0.2,0-0.4,0.2-0.4,0.4c0,0.2,0.2,0.4,0.4,0.4l5.7,0c0.2,0,0.4-0.2,0.4-0.4
			c0-0.2-0.2-0.4-0.4-0.4L50.3,1007.1z"/>
		<path class="st0" d="M78.5,1007.1c-0.2,0-0.4,0.2-0.4,0.4c0,0.2,0.2,0.4,0.4,0.4l5.7,0c0.2,0,0.4-0.2,0.4-0.4
			c0-0.2-0.2-0.4-0.4-0.4L78.5,1007.1z"/>
		<path class="st0" d="M67.3,999c-4.7,0-8.5,3.8-8.5,8.5c0,4.7,3.8,8.5,8.5,8.5c4.7,0,8.5-3.8,8.5-8.5C75.8,1002.8,72,999,67.3,999z
			 M67.3,999.8c4.3,0,7.7,3.5,7.7,7.7c0,4.3-3.5,7.7-7.7,7.7c-4.3,0-7.7-3.5-7.7-7.7C59.5,1003.3,63,999.8,67.3,999.8L67.3,999.8z"
			/>
	</g>
	<circle class="st2" cx="75.3" cy="75.3" r="60"/>
</g>
</svg>
