<?xml version="1.0" encoding="utf-8"?>
<!-- Generator: Adobe Illustrator 22.1.0, SVG Export Plug-In . SVG Version: 6.00 Build 0)  -->
<svg version="1.1" id="Capa_1" xmlns="http://www.w3.org/2000/svg" xmlns:xlink="http://www.w3.org/1999/xlink" x="0px" y="0px"
	 viewBox="0 0 150 150" style="enable-background:new 0 0 150 150;" xml:space="preserve">
<style type="text/css">
	.st0{fill:#ECE3D2;}
	.st1{fill:none;stroke:#ECE3D2;stroke-miterlimit:10;}
</style>
<g>
	<g>
		<g>
			<g>
				<g>
					<path class="st0" d="M54.9,59.9h39.1c0.4,0,0.7,0.3,0.7,0.7c0,0,0,0.1,0,0.1l-2.6,19.2l-0.6-0.1l0.6,0.1c0,0.4-0.4,0.6-0.7,0.6
						c-0.1,0-0.2,0-0.2-0.1c-0.5-0.2-0.9-0.3-1.4-0.3c-0.2,0-0.4,0-0.6,0c0.1,0.2,0.3,0.5,0.4,0.7c0.3,0.4,0.8,0.8,1.3,1.1
						c0.1,0,0.1,0.1,0.2,0.1c0.1,0,0.1,0.1,0.2,0.1L91,82.6l0.3-0.6c0.3,0.1,0.4,0.4,0.4,0.7l-0.3,2.3L90.7,85l0.6,0.1
						c0,0.4-0.4,0.6-0.7,0.6c-0.1,0-0.1,0-0.2-0.1c-0.4-0.2-0.9-0.4-1.3-0.6c-1.2-0.6-2.3-1.1-3.8-0.5c-2.4,0.9-4.1,2.8-5.3,5
						c-1.5,2.8-2.2,6.3-2.2,9.2h0c0,1.7,0.2,3.4,0.6,4.9c0.4,1.6,1,3.1,1.7,4.3l0,0c0.2,0.3,0.1,0.7-0.3,0.9
						c-0.1,0.1-0.2,0.1-0.3,0.1h0h-18c-0.3,0-0.6-0.3-0.7-0.6l-6.5-47.8l0,0C54.2,60.3,54.5,59.9,54.9,59.9
						C54.9,59.9,54.9,59.9,54.9,59.9z M93.3,61.2H55.7l6.3,46.5h16.4c-0.5-1.1-1-2.4-1.3-3.7c-0.4-1.6-0.6-3.4-0.6-5.2h0v0h0
						c0-3.1,0.8-6.8,2.4-9.8c1.3-2.5,3.3-4.6,6-5.6c2-0.8,3.4-0.1,4.9,0.6c0.2,0.1,0.3,0.1,0.5,0.2l0.1-1.1l0,0
						c-0.7-0.4-1.3-0.9-1.7-1.4c-0.5-0.6-0.8-1.2-0.9-1.8c-0.1-0.3,0.1-0.7,0.4-0.8l0.2,0.6l-0.2-0.6c0.5-0.2,1.1-0.3,1.7-0.2
						c0.3,0,0.7,0.1,1,0.2L93.3,61.2z"/>
					<path class="st0" d="M92.4,77.3l-0.3,2.6l-0.6-0.1l0.6,0.1c0,0.4-0.4,0.6-0.7,0.6c-0.1,0-0.2,0-0.2-0.1
						c-0.5-0.2-0.9-0.3-1.4-0.3c-0.2,0-0.4,0-0.6,0c0.1,0.2,0.3,0.5,0.4,0.7c0.3,0.4,0.8,0.8,1.3,1.1c0.1,0,0.1,0.1,0.2,0.1
						c0.1,0,0.1,0.1,0.2,0.1L91,82.6l0.3-0.6c0.3,0.1,0.4,0.4,0.4,0.7l-0.3,2.3L90.7,85l0.6,0.1c0,0.4-0.4,0.6-0.7,0.6
						c-0.1,0-0.1,0-0.2-0.1c-0.4-0.2-0.9-0.4-1.3-0.6c-1.2-0.6-2.3-1.1-3.8-0.5C84,85,82.9,85.7,82,86.7c-1,1.1-1.9,2.4-2.5,3.8
						l-0.6-0.3l0.6,0.3c-0.1,0.2-0.4,0.4-0.6,0.4H59c-0.3,0-0.6-0.3-0.7-0.6l-1.8-13l0,0c0-0.4,0.2-0.7,0.6-0.7c0,0,0.1,0,0.1,0
						h34.6c0.4,0,0.7,0.3,0.7,0.7C92.4,77.2,92.4,77.3,92.4,77.3z M90.9,78.9l0.1-1.1H58l1.6,11.7h18.9c0.7-1.4,1.5-2.7,2.6-3.8
						c1.1-1.1,2.3-1.9,3.8-2.5c2-0.8,3.4-0.1,4.9,0.6c0.2,0.1,0.3,0.1,0.5,0.2l0.1-1.1l0,0c-0.7-0.4-1.3-0.9-1.7-1.4
						c-0.5-0.6-0.8-1.2-0.9-1.8c-0.1-0.3,0.1-0.7,0.4-0.8l0.2,0.6l-0.2-0.6c0.5-0.2,1.1-0.3,1.7-0.2C90.2,78.7,90.5,78.8,90.9,78.9z
						"/>
					<path class="st0" d="M51.6,59.9h45.8l-7-8.1H58.6L51.6,59.9z M98.8,61.2H50.2v0c-0.2,0-0.3-0.1-0.4-0.2
						c-0.3-0.2-0.3-0.6-0.1-0.9l0.5,0.4l-0.5-0.4l8.1-9.4c0.1-0.2,0.3-0.3,0.5-0.3h32.5v0c0.2,0,0.4,0.1,0.5,0.2l0,0l8.1,9.4
						c0.1,0.1,0.2,0.3,0.2,0.5C99.5,60.9,99.2,61.2,98.8,61.2z"/>
					<path class="st0" d="M52.8,35.3c-0.3-0.1-0.7,0.1-0.8,0.5c-0.1,0.3,0.1,0.7,0.5,0.8l21.4,5.7v26.2c0,0.4,0.3,0.7,0.7,0.7
						c0.4,0,0.7-0.3,0.7-0.7V41.8c0-0.3-0.2-0.6-0.5-0.6l-0.2,0.6l0.2-0.6L52.8,35.3z"/>
					<g>
						<path class="st0" d="M109.3,98.7c0,4.4-1.2,8.4-3.3,11.2c-2.1,3-4.9,4.8-8.1,4.8c-1,0-1.9-0.2-2.8-0.5
							c-0.8-0.3-1.5-0.7-2.2-1.1c-0.7,0.5-1.4,0.9-2.2,1.1c-0.9,0.3-1.8,0.5-2.8,0.5c-3.2,0-6.1-1.8-8.1-4.8
							c-2-2.9-3.3-6.9-3.3-11.2c0,0,0,0,0-0.1c0-3.1,0.8-6.8,2.4-9.8c1.3-2.5,3.3-4.6,6-5.6c2-0.8,3.4-0.1,4.9,0.6
							c1.5,0.7,3.1,1.4,5.7,0.4c0.5-0.2,0.8-0.3,1.1-0.5c2.3-1,3.3-1.4,6.1,0.4c2.2,1.4,3.7,3.5,4.8,5.8
							C108.7,92.8,109.3,95.9,109.3,98.7L109.3,98.7L109.3,98.7L109.3,98.7z M105,109.2c1.9-2.7,3-6.4,3-10.5h0
							c0-2.7-0.5-5.6-1.7-8.2c-1-2.1-2.4-4-4.3-5.3c-2.2-1.5-3.1-1.1-4.9-0.3c-0.4,0.2-0.8,0.3-1.2,0.5c-3.2,1.2-5,0.4-6.7-0.4
							c-1.2-0.6-2.3-1.1-3.8-0.5c-2.4,0.9-4.1,2.8-5.3,5c-1.5,2.8-2.2,6.2-2.2,9.2c0,0,0,0,0,0c0,4.1,1.2,7.8,3,10.5
							c1.8,2.6,4.3,4.2,7.1,4.2c0.8,0,1.6-0.1,2.4-0.4c0.8-0.3,1.5-0.7,2.2-1.2c0.2-0.2,0.6-0.2,0.8,0l0,0c0.7,0.5,1.5,1,2.3,1.2
							c0.8,0.3,1.6,0.4,2.4,0.4C100.6,113.5,103.1,111.8,105,109.2z"/>
						<path class="st0" d="M97,80.3c0.3-0.2,0.4-0.6,0.1-0.9s-0.6-0.4-0.9-0.1c0,0-3.3,2.4-3.4,7.5c0,0.4,0.3,0.7,0.6,0.7
							c0.4,0,0.7-0.3,0.7-0.6C94.2,82.3,97,80.4,97,80.3z"/>
						<path class="st0" d="M94.4,83.6c-0.6,0.2-1.3,0.2-2,0.1c-0.7-0.1-1.4-0.3-2.1-0.7l0.3-0.6L90.3,83c0,0,0,0,0,0
							c-0.7-0.4-1.2-0.9-1.7-1.4c-0.5-0.6-0.8-1.2-0.9-1.9l0,0c-0.1-0.3,0.1-0.7,0.5-0.8c0.6-0.2,1.3-0.2,2-0.1
							c0.7,0.1,1.4,0.3,2.1,0.7L92,80.1l0.3-0.6c0,0,0,0,0,0c0.7,0.4,1.2,0.9,1.7,1.4c0.5,0.6,0.8,1.2,0.9,1.9l0,0
							C94.9,83.2,94.7,83.5,94.4,83.6z M92.6,82.4c0.3,0,0.6,0.1,0.8,0c-0.1-0.2-0.3-0.5-0.4-0.7c-0.3-0.4-0.8-0.8-1.3-1.1
							c0,0,0,0,0,0l0,0l0,0l0,0c-0.5-0.3-1.1-0.5-1.6-0.6c-0.3,0-0.6-0.1-0.8,0c0.1,0.2,0.3,0.5,0.4,0.7c0.3,0.4,0.8,0.8,1.3,1.1
							c0,0,0,0,0,0l0,0l0,0l0,0C91.5,82.2,92,82.3,92.6,82.4z"/>
						<path class="st0" d="M84.5,109.6c0.2,0.3,0.6,0.4,0.9,0.2c0.3-0.2,0.4-0.6,0.2-0.9c-0.9-1.4-1.7-3-2.2-4.8
							c-0.5-1.7-0.8-3.6-0.8-5.6c0-0.4-0.3-0.7-0.6-0.7s-0.7,0.3-0.7,0.6c0,2.1,0.3,4.1,0.8,6C82.7,106.4,83.5,108.1,84.5,109.6z
							 M81.8,93.7c-0.1,0.4,0.1,0.7,0.5,0.8c0.4,0.1,0.7-0.1,0.8-0.5c0.2-1,0.5-1.9,0.8-2.8c0.3-0.9,0.7-1.7,1.2-2.5
							c0.2-0.3,0.1-0.7-0.2-0.9S84.2,87.7,84,88c-0.5,0.8-0.9,1.7-1.3,2.7C82.3,91.7,82,92.7,81.8,93.7z"/>
					</g>
				</g>
			</g>
		</g>
		<circle class="st1" cx="75" cy="75" r="60"/>
	</g>
</g>
</svg>
