<?xml version="1.0" encoding="utf-8"?>
<!-- Generator: Adobe Illustrator 22.1.0, SVG Export Plug-In . SVG Version: 6.00 Build 0)  -->
<svg version="1.1" id="Capa_1" xmlns="http://www.w3.org/2000/svg" xmlns:xlink="http://www.w3.org/1999/xlink" x="0px" y="0px"
	 viewBox="0 0 150 150" style="enable-background:new 0 0 150 150;" xml:space="preserve">
<style type="text/css">
	.st0{fill:none;stroke:#ECE3D2;stroke-miterlimit:10;}
	.st1{fill:#ECE3D2;}
</style>
<g>
	<g>
		<circle class="st0" cx="75" cy="75" r="60"/>
		<path class="st0" d="M120.3,69.7h-8.5c-9.2,0-16.7,7.5-16.7,16.8v12.7c0,6.8-5.5,12.3-12.3,12.3c-6.8,0-12.3-5.5-12.3-12.3l0,0
			V88.4c10.4-1.1,18.2-9.9,18.2-20.3V54.2c0-1.2-1-2.2-2.2-2.2h-7.6V36.6c0-1.2-1-2.2-2.2-2.2s-2.2,1-2.2,2.2V52H61.9V36.6
			c0-1.2-1-2.2-2.2-2.2s-2.2,1-2.2,2.2V52H50c-1.2,0-2.2,1-2.2,2.2v13.9c0,10.4,7.8,19.2,18.2,20.3v10.8c0,9.3,7.5,16.8,16.8,16.8
			c9.3,0,16.8-7.5,16.8-16.8V86.5c0-6.8,5.5-12.3,12.3-12.3h8.5c1.2,0,2.2-1,2.2-2.2S121.6,69.7,120.3,69.7z"/>
		<path class="st1" d="M71,59.4h-8.2V78h4.1v-6.2H71c3.4,0,6.2-2.8,6.2-6.2C77.2,62.2,74.4,59.4,71,59.4z M73,65.6
			c0,1.1-0.9,2.1-2.1,2.1h-4.1v-4.1H71C72.1,63.6,73,64.5,73,65.6L73,65.6z"/>
	</g>
</g>
</svg>
