<?xml version="1.0" encoding="utf-8"?>
<!-- Generator: Adobe Illustrator 22.1.0, SVG Export Plug-In . SVG Version: 6.00 Build 0)  -->
<svg version="1.1" id="Capa_1" xmlns="http://www.w3.org/2000/svg" xmlns:xlink="http://www.w3.org/1999/xlink" x="0px" y="0px"
	 viewBox="0 0 150 150" style="enable-background:new 0 0 150 150;" xml:space="preserve">
<style type="text/css">
	.st0{fill:none;stroke:#ECE3D2;stroke-miterlimit:10;}
	.st1{fill:#ECE3D2;}
</style>
<g>
	<circle class="st0" cx="71.2" cy="72.3" r="60"/>
	<g>
		<g>
			<path class="st1" d="M60,89.9h-9.8c-0.3,0-0.5-0.2-0.5-0.5V55.2c0-0.3,0.2-0.5,0.5-0.5H60c0.3,0,0.5,0.2,0.5,0.5v34.2
				C60.5,89.7,60.2,89.9,60,89.9z M50.7,88.9h8.8V55.7h-8.8V88.9z"/>
		</g>
		<g>
			<path class="st1" d="M50.2,85.6h-9.8c-0.3,0-0.5-0.2-0.5-0.5V59.5c0-0.3,0.2-0.5,0.5-0.5h9.8c0.3,0,0.5,0.2,0.5,0.5v25.7
				C50.7,85.4,50.5,85.6,50.2,85.6z M40.9,84.7h8.8V60h-8.8V84.7z"/>
		</g>
		<g>
			<path class="st1" d="M85.6,77.7H60c-0.3,0-0.5-0.2-0.5-0.5v-9.8c0-0.3,0.2-0.5,0.5-0.5h25.7c0.3,0,0.5,0.2,0.5,0.5v9.8
				C86.1,77.5,85.9,77.7,85.6,77.7z M60.5,76.7h24.7v-8.8H60.5V76.7z"/>
		</g>
		<g>
			<path class="st1" d="M114.4,77.7h-9.2c-0.3,0-0.5-0.2-0.5-0.5v-9.8c0-0.3,0.2-0.5,0.5-0.5h9.2c0.3,0,0.5,0.2,0.5,0.5v9.8
				C114.9,77.5,114.7,77.7,114.4,77.7z M105.7,76.7h8.2v-8.8h-8.2V76.7z"/>
		</g>
		<g>
			<path class="st1" d="M40.4,77.7h-9.2c-0.3,0-0.5-0.2-0.5-0.5v-9.8c0-0.3,0.2-0.5,0.5-0.5h9.2c0.3,0,0.5,0.2,0.5,0.5v9.8
				C40.9,77.5,40.7,77.7,40.4,77.7z M31.7,76.7h8.2v-8.8h-8.2V76.7z"/>
		</g>
		<g>
			<path class="st1" d="M95.4,89.9h-9.8c-0.3,0-0.5-0.2-0.5-0.5V55.2c0-0.3,0.2-0.5,0.5-0.5h9.8c0.3,0,0.5,0.2,0.5,0.5v34.2
				C95.9,89.7,95.7,89.9,95.4,89.9z M86.1,88.9h8.8V55.7h-8.8V88.9z"/>
		</g>
		<g>
			<path class="st1" d="M105.2,85.6h-9.8c-0.3,0-0.5-0.2-0.5-0.5V59.5c0-0.3,0.2-0.5,0.5-0.5h9.8c0.3,0,0.5,0.2,0.5,0.5v25.7
				C105.7,85.4,105.5,85.6,105.2,85.6z M95.9,84.7h8.8V60h-8.8V84.7z"/>
		</g>
	</g>
</g>
</svg>
