<?xml version="1.0" encoding="utf-8"?>
<!-- Generator: Adobe Illustrator 22.1.0, SVG Export Plug-In . SVG Version: 6.00 Build 0)  -->
<svg version="1.1" id="Capa_1" xmlns="http://www.w3.org/2000/svg" xmlns:xlink="http://www.w3.org/1999/xlink" x="0px" y="0px"
	 viewBox="0 0 150 150" style="enable-background:new 0 0 150 150;" xml:space="preserve">
<style type="text/css">
	.st0{fill:none;stroke:#ECE3D2;stroke-miterlimit:10;}
	.st1{fill:#ECE3D2;}
</style>
<g>
	<g>
		<circle class="st0" cx="75" cy="75" r="60"/>
		<path class="st1" d="M74.4,48c3.6,0,6.8,0.6,9.2,1.7c1.2,0.5,2.2,1.2,2.9,2c0.7,0.8,1.2,1.7,1.2,2.6c0,1.7-0.5,3.4-2.4,4.6
			c-0.8,0.5-2,0.9-3.4,1.2c2.5,0.5,4.8,1.1,6.7,2c1.8,0.8,3.3,1.8,4.4,2.9c1.1,1.1,1.7,2.5,1.7,3.9c0,2.5-0.7,5.1-3.7,6.8
			c-1.6,1-3.9,1.7-7.1,2.1c3.7,0.6,7,1.5,9.7,2.7c2.5,1.1,4.5,2.4,6,3.9c1.4,1.5,2.3,3.2,2.3,5c0,3.3-0.9,6.7-4.9,8.9
			c-3.9,2.2-10.7,3.5-22.6,3.4c-11.9-0.1-18.7-1.4-22.6-3.6c-3.9-2.2-4.9-5.4-4.9-8.8c0-1.8,0.8-3.5,2.3-5s3.5-2.8,6-3.9
			c2.8-1.2,6.3-2.2,10.1-2.8c-3.3-0.5-5.7-1.2-7.4-2.2c-2.9-1.7-3.7-4.2-3.7-6.7c0-1.4,0.7-2.7,1.7-3.9c1.1-1.1,2.6-2.1,4.4-2.9
			c2-0.9,4.3-1.6,7-2c-1.5-0.3-2.7-0.7-3.6-1.2c-1.9-1.1-2.5-2.9-2.5-4.5c0-1,0.5-1.9,1.2-2.6c0.7-0.8,1.7-1.4,2.9-2
			C67.6,48.7,70.8,48,74.4,48L74.4,48z"/>
	</g>
</g>
</svg>
