<?xml version="1.0" encoding="utf-8"?>
<!-- Generator: Adobe Illustrator 22.1.0, SVG Export Plug-In . SVG Version: 6.00 Build 0)  -->
<svg version="1.1" id="Capa_1" xmlns="http://www.w3.org/2000/svg" xmlns:xlink="http://www.w3.org/1999/xlink" x="0px" y="0px"
	 viewBox="0 0 150 150" style="enable-background:new 0 0 150 150;" xml:space="preserve">
<style type="text/css">
	.st0{fill:none;stroke:#ECE3D2;stroke-miterlimit:10;}
	.st1{fill:#ECE3D2;}
</style>
<g>
	<g>
		<circle class="st0" cx="75" cy="75" r="60"/>
		<g>
			<g transform="translate(-634.000000, -106.000000)">
				<path class="st1" d="M685.2,199c0.6,1.9,1.5,3.6,2.7,5c3,3.6,7.7,5.5,12.3,6.4c0.7,0.1,1.3,0.2,2,0.2h41.3
					c0.5,0,0.7-0.3,0.5-0.8c-9.3-16.6-18.5-33.2-27.8-49.7c-0.1-0.2-0.2-0.3-0.5-0.3H701c-0.1,0-0.2,0-0.2-0.1
					c-0.1-0.2-0.2-0.4-0.3-0.6c-4.2-10.3-19-10.4-23.3-0.1c-0.9,2.2-1.1,4.2-0.5,6.5C679.6,176.7,682.4,187.9,685.2,199z
					 M684.5,190.4c-2.2-8.2-4.4-16.4-6.6-24.7c-0.9-3.5,0-7.3,2.6-9.9c5.8-6,15.9-4,19,3.6c0.3,0.6,0.6,1.2,0.9,1.8
					c4.4,6.7,8.8,13.4,13.2,20.2c0,0.1,0,0.1-0.1,0.1c-2.9-2.8-5-3.9-7.1-4.6c-3-0.9-6.3-0.9-9.4-0.1c-4.7,1.3-8.8,4.5-11,8.9
					c-0.7,1.5-1.2,3-1.5,4.7C684.6,190.5,684.5,190.5,684.5,190.4z M685.4,181.1c-0.2,0.1-0.3,0.1-0.5,0.2c-0.2,0.1-0.3,0-0.3-0.2
					c-1.4-5.2-2.8-10.4-4.1-15.5c0-0.2,0-0.3,0.2-0.3c0.2-0.1,0.3-0.1,0.5-0.1c0.2-0.1,0.3,0,0.3,0.2c1.4,5.2,2.8,10.4,4.1,15.5
					C685.6,181,685.5,181.1,685.4,181.1z M685.1,168c-0.2,0.1-0.3,0.1-0.5,0.2c-0.2,0.1-0.2,0.1-0.2,0.3c0.9,3.2,1.7,6.5,2.6,9.7
					c0,0.2,0.1,0.2,0.3,0.2c0.2,0,0.3-0.1,0.5-0.1c0.2,0,0.2-0.1,0.2-0.3c-0.9-3.3-1.7-6.5-2.6-9.8C685.4,168,685.3,167.9,685.1,168
					z M716.6,184.7c-5-7.8-9.9-15.6-14.9-23.3c-0.1-0.2,0-0.4,0.2-0.4h13.3c0.2,0,0.4,0.1,0.5,0.3c8.9,15.9,17.8,31.8,26.6,47.6
					c0.3,0.5,0.1,0.8-0.5,0.8h-39.4c-0.7,0-1.4-0.1-2.1-0.2c-0.3,0-0.5-0.1-0.8-0.2c-0.7-0.1-1.3-0.3-2-0.5
					c-0.7-0.2-1.3-0.4-1.9-0.7c-0.6-0.2-1.3-0.5-1.9-0.8c-0.6-0.3-1.2-0.6-1.7-1c-0.5-0.4-1.1-0.7-1.6-1.2c-0.5-0.4-1-0.9-1.4-1.3
					c-0.3-0.3-0.5-0.6-0.7-0.9c-0.2-0.3-0.5-0.6-0.7-1c-0.4-0.7-0.8-1.4-1.1-2.1c-0.3-0.8-0.6-1.6-0.8-2.4c-0.2-0.8-0.3-1.7-0.4-2.5
					c-0.1-0.8-0.1-1.7,0-2.6c0.1-0.8,0.2-1.7,0.3-2.5c0.2-0.8,0.4-1.6,0.7-2.4c0.2-0.4,0.3-0.8,0.5-1.2c0.1-0.3,0.3-0.6,0.5-0.9
					c0.3-0.5,0.6-1,1-1.5c0.4-0.5,0.8-1,1.2-1.4c0.4-0.5,0.9-0.9,1.4-1.3c0.9-0.7,1.9-1.4,2.9-1.9c0.6-0.3,1.3-0.6,2-0.9
					c0.6-0.2,1.3-0.4,2-0.6c0.8-0.2,1.6-0.3,2.4-0.4c0.8-0.1,1.6-0.1,2.4,0c0.8,0,1.6,0.2,2.4,0.3c0.5,0.1,1.1,0.3,1.6,0.4
					c0.5,0.2,1,0.4,1.5,0.6c0.9,0.4,1.8,0.9,2.7,1.5c1,0.7,1.8,1.4,2.6,2.3c0.7,0.8,1.4,1.6,2,2.5c0.3,0.5,0.6,0.9,0.9,1.4
					c0.2,0.3,0.4,0.7,0.5,1.1c0.2,0.4,0.3,0.7,0.4,1.1c0.1,0.4,0.2,0.7,0.3,1.1c0.1,0.4,0.2,0.7,0.2,1.1c0.1,0.4,0.1,0.7,0.1,1.1
					c0,0.4,0,0.7,0,1.1c0,0.4-0.1,0.8-0.2,1.2c-0.1,0.4-0.2,0.8-0.4,1.2c-0.1,0.4-0.3,0.8-0.5,1.2c-0.2,0.4-0.4,0.8-0.7,1.2
					c-0.3,0.4-0.5,0.8-0.8,1.1c-0.3,0.4-0.6,0.7-0.9,1c-0.3,0.3-0.7,0.6-1.1,0.9c-0.5,0.4-0.9,0.7-1.4,1c-0.6,0.4-1.2,0.7-1.8,0.9
					c-0.7,0.3-1.3,0.5-2,0.7c-1.1,0.3-2.3,0.4-3.4,0.5c-1,0-2-0.1-2.9-0.2c-0.7-0.1-1.4-0.3-2.1-0.5c-0.6-0.2-1.2-0.4-1.7-0.7
					c-0.4-0.2-0.9-0.5-1.3-0.7c-0.4-0.2-0.7-0.5-1.1-0.8c-0.3-0.3-0.7-0.6-1-0.9c-0.3-0.3-0.6-0.6-0.9-1c-0.3-0.3-0.5-0.7-0.7-1.1
					c-0.2-0.4-0.4-0.7-0.6-1.1c-0.2-0.4-0.3-0.7-0.4-1.1c-0.1-0.2-0.1-0.5-0.2-0.7c0-0.3-0.1-0.5-0.1-0.8c0-0.5,0-0.9,0-1.4
					c0-0.4,0.1-0.9,0.2-1.3c0.1-0.3,0.1-0.6,0.2-0.9c0.1-0.3,0.2-0.6,0.3-0.8c0.1-0.3,0.2-0.5,0.4-0.8c0.1-0.3,0.3-0.5,0.4-0.7
					c0.4-0.6,0.8-1.2,1.3-1.7c0.2-0.2,0.3-0.3,0.5-0.5c0.2-0.2,0.4-0.3,0.6-0.4c0.1-0.1,0.2-0.2,0.3-0.2c0.1-0.1,0.2-0.1,0.3-0.2
					c0.5-0.3,1-0.6,1.5-0.8c0.3-0.1,0.6-0.2,0.9-0.3c0.3-0.1,0.6-0.2,0.9-0.2c0.3-0.1,0.6-0.1,1-0.1c0.3,0,0.6,0,1,0
					c0.3,0,0.6,0,0.8,0c0.3,0,0.6,0.1,0.8,0.1c0.8,0.1,1.6,0.3,2.3,0.7c0.2,0.1,0.3,0.1,0.5,0.2c0.2,0.1,0.3,0.2,0.5,0.3
					c0.2,0.1,0.3,0.2,0.5,0.3c0.2,0.1,0.3,0.2,0.5,0.3c0.3,0.2,0.6,0.4,0.8,0.7c0.3,0.2,0.5,0.5,0.7,0.8c0.2,0.2,0.3,0.4,0.5,0.7
					c0.1,0.2,0.2,0.3,0.3,0.5c0.1,0.2,0.2,0.5,0.3,0.7c0.1,0.4,0.2,0.7,0.3,1.1c0.1,0.4,0.1,0.8,0.1,1.2c0,0.4,0,0.8-0.1,1.2
					c-0.1,0.4-0.1,0.8-0.3,1.2c-0.1,0.4-0.3,0.7-0.4,1.1c-0.2,0.3-0.4,0.7-0.6,1c-0.1,0.1-0.2,0.3-0.4,0.4c-0.1,0.1-0.2,0.2-0.3,0.3
					c-0.1,0.1-0.3,0.2-0.4,0.3c-0.2,0.1-0.4,0.3-0.6,0.4c-0.3,0.2-0.5,0.3-0.8,0.4c-0.2,0.1-0.3,0.1-0.5,0.2c-0.3,0.1-0.7,0.2-1,0.3
					c-0.2,0-0.5,0.1-0.7,0.1c-0.3,0-0.6,0-0.9,0c-0.3,0-0.7,0-1-0.1c-0.4-0.1-0.7-0.2-1-0.3c-0.1,0-0.2-0.1-0.3-0.2
					c-0.1-0.1-0.2-0.1-0.3-0.2c-0.1-0.1-0.2-0.2-0.4-0.2c-0.1-0.1-0.2-0.2-0.3-0.3c-0.1-0.1-0.2-0.2-0.3-0.3
					c-0.1-0.1-0.1-0.1-0.2-0.2c-0.1-0.1-0.1-0.1-0.2-0.2c-0.1-0.1-0.2-0.2-0.2-0.3c-0.1-0.1-0.1-0.2-0.2-0.3
					c-0.1-0.2-0.3-0.4-0.4-0.7c0-0.1-0.1-0.2-0.1-0.3c0-0.1-0.1-0.2-0.1-0.3c0-0.1,0-0.2-0.1-0.3c0-0.1,0-0.2,0-0.3
					c0-0.1,0-0.2,0-0.3c0-0.1,0-0.1,0-0.2c0-0.1,0-0.1,0-0.2c0-0.1,0.1-0.2,0.1-0.4c0-0.1,0.1-0.2,0.1-0.4c0.1-0.2,0.2-0.5,0.4-0.7
					c0.1-0.1,0.2-0.2,0.2-0.3c0.1-0.1,0.2-0.2,0.3-0.3c0.1-0.1,0.2-0.2,0.4-0.3c0.1-0.1,0.3-0.2,0.4-0.2c0.1-0.1,0.3-0.1,0.4-0.2
					c0.1-0.1,0.3-0.1,0.5-0.1c0.2,0,0.3-0.1,0.5-0.1c0.1,0,0.2,0,0.2,0c0.1,0,0.2,0,0.2,0c0.1,0,0.3,0,0.4,0c0.1,0,0.3,0.1,0.4,0.1
					c0.1,0,0.2,0.1,0.3,0.1c0.1,0,0.1,0.1,0.2,0.1c0.1,0.1,0.2,0.1,0.3,0.2c0.1,0.1,0.2,0.2,0.2,0.3c0.1,0.1,0.1,0.2,0.2,0.3
					c0.1,0.1,0.1,0.3,0.1,0.4c0,0.1,0,0.2,0,0.3c0,0.2,0.1,0.2,0.3,0.2h0.5c0.2,0,0.3-0.1,0.3-0.3c-0.2-3.4-4.3-3.7-6.5-1.7
					c-0.9,0.8-1.4,1.9-1.5,3.1c-0.1,2.2,1.7,4.5,4,5.4c2.7,1,6.2,0.1,8.3-2.1c2.2-2.4,2.6-6.3,1.1-9.1c-1.4-2.6-4.3-4.3-7.3-4.7
					c-2.6-0.4-5.2,0.1-7.4,1.4c-1.6,1-3,2.4-3.9,4c-1.2,2.2-1.7,5-1.1,7.4c0.8,3.3,3.4,6.1,6.6,7.7c4.9,2.5,11.3,2,15.8-1.1
					c3-2.1,5.3-5.4,5.7-8.8c0.3-2.9-0.7-5.9-2.3-8.5C716.8,184.9,716.7,184.8,716.6,184.7z"/>
			</g>
		</g>
	</g>
</g>
</svg>
