<?xml version="1.0" encoding="utf-8"?>
<!-- Generator: Adobe Illustrator 22.1.0, SVG Export Plug-In . SVG Version: 6.00 Build 0)  -->
<svg version="1.1" id="Capa_1" xmlns="http://www.w3.org/2000/svg" xmlns:xlink="http://www.w3.org/1999/xlink" x="0px" y="0px"
	 viewBox="0 0 150 150" style="enable-background:new 0 0 150 150;" xml:space="preserve">
<style type="text/css">
	.st0{fill:#ECE3D2;}
	.st1{fill:none;stroke:#ECE3D2;stroke-miterlimit:10;}
</style>
<g>
	<g>
		<g>
			<g>
				<path class="st0" d="M117.2,90.1c-3.8,0-5.7,1.4-7.5,2.7c-1.7,1.2-3.2,2.3-6.4,2.3c-3.2,0-4.8-1.1-6.4-2.3
					c-1.2-0.9-2.6-1.9-4.6-2.3V80.3v-6.5v-9v-6.5v-6.6v-1.2v-8.4c0-3.3-2.7-5.9-5.9-5.9s-5.9,2.7-5.9,5.9v9.6c0,0.5,0.4,0.9,0.9,0.9
					c0.5,0,0.9-0.4,0.9-0.9v-9.6c0-2.3,1.9-4.1,4.1-4.1c2.3,0,4.1,1.9,4.1,4.1v8.4v1.2v5.7H65.1v-5.7v-1.2v-8.4
					c0-3.3-2.7-5.9-5.9-5.9c-3.3,0-5.9,2.7-5.9,5.9v9.6c0,0.5,0.4,0.9,0.9,0.9s0.9-0.4,0.9-0.9v-9.6c0-2.3,1.9-4.1,4.1-4.1
					c2.3,0,4.1,1.9,4.1,4.1v8.4v1.2v6.6v6.5v9v6.5v9.9c-0.5-0.1-1.1-0.1-1.7-0.1c-3.8,0-5.7,1.4-7.5,2.7c-1.7,1.2-3.2,2.3-6.4,2.3
					c-3.2,0-4.8-1.1-6.4-2.3c-1.7-1.3-3.7-2.7-7.5-2.7c-0.5,0-0.9,0.4-0.9,0.9c0,0.5,0.4,0.9,0.9,0.9c3.2,0,4.8,1.1,6.4,2.3
					c1.7,1.3,3.7,2.7,7.5,2.7c3.8,0,5.7-1.4,7.5-2.7c1.7-1.2,3.2-2.3,6.4-2.3c3.2,0,4.8,1.1,6.4,2.3c1.7,1.3,3.7,2.7,7.5,2.7
					s5.7-1.4,7.5-2.7c1.7-1.2,3.2-2.3,6.4-2.3s4.8,1.1,6.4,2.3c1.7,1.3,3.7,2.7,7.5,2.7c3.8,0,5.7-1.4,7.5-2.7
					c1.7-1.2,3.2-2.3,6.4-2.3c0.5,0,0.9-0.4,0.9-0.9C118.1,90.5,117.7,90.1,117.2,90.1z M65.1,65.7h25.4v7.2H65.1V65.7z M65.1,74.7
					h25.4v4.7H65.1V74.7z M90.4,59.2v4.7H65.1v-4.7H90.4z M81.9,92.7c-1.7,1.2-3.2,2.3-6.4,2.3c-3.2,0-4.8-1.1-6.4-2.3
					c-1.1-0.8-2.3-1.6-4-2.2v-9.4h25.4v9c-0.3,0-0.7-0.1-1-0.1C85.6,90.1,83.7,91.5,81.9,92.7z"/>
				<path class="st0" d="M114.7,98c-3.8,0-5.7,1.4-7.5,2.7c-1.7,1.2-3.2,2.3-6.4,2.3s-4.8-1.1-6.4-2.3c-1.7-1.3-3.7-2.7-7.5-2.7
					c-3.8,0-5.7,1.4-7.5,2.7c-1.7,1.2-3.2,2.3-6.4,2.3c-3.2,0-4.8-1.1-6.4-2.3c-1.7-1.3-3.7-2.7-7.5-2.7c-3.8,0-5.7,1.4-7.5,2.7
					c-1.7,1.2-3.2,2.3-6.4,2.3c-3.2,0-4.8-1.1-6.4-2.3C37,99.4,35,98,31.3,98c-0.5,0-0.9,0.4-0.9,0.9c0,0.5,0.4,0.9,0.9,0.9
					c3.2,0,4.8,1.1,6.4,2.3c1.7,1.3,3.7,2.7,7.5,2.7c3.8,0,5.7-1.4,7.5-2.7c1.7-1.2,3.2-2.3,6.4-2.3c3.2,0,4.8,1.1,6.4,2.3
					c1.7,1.3,3.7,2.7,7.5,2.7c3.8,0,5.7-1.4,7.5-2.7c1.7-1.2,3.2-2.3,6.4-2.3c3.2,0,4.8,1.1,6.4,2.3c1.7,1.3,3.7,2.7,7.5,2.7
					c3.8,0,5.7-1.4,7.5-2.7c1.7-1.2,3.2-2.3,6.4-2.3c0.5,0,0.9-0.4,0.9-0.9C115.6,98.4,115.2,98,114.7,98z"/>
			</g>
		</g>
		<circle class="st1" cx="75" cy="75" r="60"/>
	</g>
</g>
</svg>
