<?xml version="1.0" encoding="utf-8"?>
<!-- Generator: Adobe Illustrator 22.1.0, SVG Export Plug-In . SVG Version: 6.00 Build 0)  -->
<svg version="1.1" xmlns="http://www.w3.org/2000/svg" xmlns:xlink="http://www.w3.org/1999/xlink" x="0px" y="0px"
	 viewBox="0 0 100 100" style="enable-background:new 0 0 100 100;" xml:space="preserve">
<style type="text/css">
	.st0{fill:none;stroke:#000000;stroke-miterlimit:10;}
</style>
<g id="Capa_1">
</g>
<g id="Capa_2">
	<g>
		<path class="st0" d="M83.1,98H16.9C9.5,98,3.5,92,3.5,84.6V15.4C3.5,8,9.5,2,16.9,2h66.2c7.4,0,13.4,6,13.4,13.4v69.2
			C96.5,92,90.5,98,83.1,98z"/>
		<path class="st0" d="M96.5,27.6c0,0-24.7-8.1-31.4,0.7s-2.2,16.1,0,35.3c2.2,19.2-1.8,21.6-14.5,21.5c-13,0.1-17.1-2.3-14.8-21.5
			s6.9-26.5,0-35.3S3.5,27.6,3.5,27.6"/>
	</g>
</g>
</svg>
