<?xml version="1.0" encoding="utf-8"?>
<!-- Generator: Adobe Illustrator 22.1.0, SVG Export Plug-In . SVG Version: 6.00 Build 0)  -->
<svg version="1.1" xmlns="http://www.w3.org/2000/svg" xmlns:xlink="http://www.w3.org/1999/xlink" x="0px" y="0px"
	 viewBox="0 0 100 100" style="enable-background:new 0 0 100 100;" xml:space="preserve">
<style type="text/css">
	.st0{fill:none;stroke:#000000;stroke-miterlimit:10;}
</style>
<g id="Capa_1">
</g>
<g id="Capa_2">
	<g>
		<path class="st0" d="M82.9,97.6H16.7c-7.4,0-13.4-6-13.4-13.4V15c0-7.4,6-13.4,13.4-13.4h66.2c7.4,0,13.4,6,13.4,13.4v69.2
			C96.3,91.6,90.3,97.6,82.9,97.6z"/>
		<ellipse class="st0" cx="49.8" cy="13.4" rx="38.1" ry="11.8"/>
		<ellipse class="st0" cx="49.8" cy="18.6" rx="22.7" ry="6.2"/>
		<line class="st0" x1="32.1" y1="69.1" x2="32.1" y2="97.6"/>
		<line class="st0" x1="40.9" y1="57.3" x2="40.9" y2="97.6"/>
		<line class="st0" x1="50.6" y1="45.8" x2="50.6" y2="97.6"/>
		<line class="st0" x1="59.8" y1="57.3" x2="59.8" y2="97.6"/>
		<line class="st0" x1="70" y1="69.1" x2="70" y2="97.6"/>
	</g>
</g>
</svg>
