<?xml version="1.0" encoding="utf-8"?>
<!-- Generator: Adobe Illustrator 22.1.0, SVG Export Plug-In . SVG Version: 6.00 Build 0)  -->
<svg version="1.1" id="Capa_1" xmlns="http://www.w3.org/2000/svg" xmlns:xlink="http://www.w3.org/1999/xlink" x="0px" y="0px"
	 viewBox="0 0 150 150" style="enable-background:new 0 0 150 150;" xml:space="preserve">
<style type="text/css">
	.st0{fill:#FFFFFF;}
</style>
<g>
	<path class="st0" d="M39.6,145.9c3.4,0,6.8-0.9,9.9-2.8c3.4-2.1,6.2-5,8.1-8.4c2.5-4.4,3.5-9.5,2.8-14.6l-0.1-1.1l-3.2-0.2l0.2,1.6
		c0,0.2,0.1,0.5,0.1,0.7c0.8,7.7-2.9,15.3-9.5,19.3c-7.4,4.6-17.2,2.2-21.8-5.2c-3.6-5.8-1.7-13.4,4.1-17c4.5-2.8,10.4-1.3,13.2,3.2
		c2.1,3.4,1,8-2.4,10.1c-2.6,1.6-6.1,0.8-7.7-1.8c-1.2-1.9-0.6-4.5,1.4-5.7c1.4-0.9,3.3-0.4,4.1,1c0.6,1,0.3,2.3-0.7,2.9
		c-0.6,0.4-1.5,0.2-1.9-0.5l-0.7-1.1l-2.6,1.6l0.7,1.1c1.3,2.1,4,2.8,6.1,1.5c2.4-1.5,3.2-4.7,1.7-7.1c-1.8-2.9-5.5-3.8-8.4-2
		c-3.4,2.1-4.5,6.6-2.4,10c2.5,4.1,7.9,5.3,11.9,2.9c4.9-3,6.4-9.5,3.4-14.4c-3.7-5.9-11.5-7.8-17.4-4.2c-7.3,4.5-9.5,14-5.1,21.3
		C27,142.7,33.3,145.9,39.6,145.9z"/>
	<path class="st0" d="M110.4,147c-3.4,0-6.8-0.9-9.9-2.8c-7.9-4.8-12.1-13.9-10.9-23l0.1-1.1l3.2-0.2l-0.2,1.6
		c-1.1,8,2.6,15.8,9.4,20c7.4,4.6,17.2,2.2,21.8-5.2c3.6-5.8,1.7-13.4-4.1-17c-4.5-2.8-10.4-1.3-13.2,3.2c-2.1,3.4-1,8,2.4,10.1
		c2.6,1.6,6.1,0.8,7.7-1.8c1.2-1.9,0.6-4.5-1.4-5.7c-1.4-0.9-3.3-0.4-4.1,1c-0.6,1-0.3,2.3,0.7,2.9c0.6,0.4,1.5,0.2,1.9-0.5l0.7-1.1
		l2.6,1.6l-0.7,1.1c-1.3,2.1-4,2.8-6.1,1.5c-2.4-1.5-3.2-4.7-1.7-7.1c1.8-2.9,5.5-3.8,8.4-2c3.4,2.1,4.5,6.6,2.4,10
		c-2.5,4.1-7.9,5.3-11.9,2.9c-4.9-3-6.4-9.5-3.4-14.4c3.7-5.9,11.5-7.8,17.4-4.2c7.3,4.5,9.5,14,5.1,21.3
		C123,143.8,116.7,147,110.4,147z"/>
	<path class="st0" d="M75.1,145c-10,0-17.6-3.8-17.6-8.7v-17.4h4v17.4c0,1.9,5.4,4.8,13.6,4.8s13.6-2.9,13.6-4.8v-17h4v17
		C92.7,141.2,85.2,145,75.1,145z"/>
	<rect x="67.6" y="61.1" class="st0" width="15.1" height="4"/>
	<path class="st0" d="M79.2,122.2c-15.9,0-27.9-1.3-36.8-4c-11.5-3.5-17.4-9.3-17.4-17.5V33.6C25,16.7,47.5,3,75.1,3
		s50.1,13.7,50.1,30.6v67.2C125.3,119.7,103.1,122.2,79.2,122.2z M75.1,6.3c-25.8,0-46.9,12.3-46.9,27.3v67.2
		c0,12,17.1,18.1,50.9,18.1c30.4,0,42.8-5.3,42.8-18.1V33.6C122,18.5,101,6.3,75.1,6.3z"/>
	<path class="st0" d="M78.5,113.5c-30.8,0-45.7-6.1-45.7-18.5V37.7c0-14.5,19-26.3,42.3-26.3s42.3,11.8,42.3,26.3V95
		C117.5,111.3,98.8,113.5,78.5,113.5z M75.2,14.7c-21.5,0-39,10.3-39,23V95c0,10.1,14.3,15.2,42.4,15.2c25.3,0,35.6-4.4,35.6-15.2
		v-6.1v-4V40.6v-2.9c0-0.3,0-0.7,0-1c-0.3-3.9-2.2-7.5-5.4-10.7c-1.1-1.1-2.3-2.1-3.6-3C98,17.9,87.2,14.7,75.2,14.7z"/>
	<path class="st0" d="M114.2,88.9h-1.8c-1.9,0-3.5-1.6-3.5-3.5v-7.2h-3.3c-1.9,0-3.5-1.6-3.5-3.5v-6.9h-3.5c-1.9,0-3.5-1.6-3.5-3.5
		v-3.2c0-1.9,1.6-3.5,3.5-3.5h3.5v-6.9c0-1.9,1.6-3.5,3.5-3.5h3.3V40c0-1.9,1.6-3.5,3.5-3.5h1.8v4h-1.3v7.2c0,1.9-1.6,3.5-3.5,3.5
		h-3.3v6.9c0,1.9-1.6,3.5-3.5,3.5h-3.5v2.2h3.5c1.9,0,3.5,1.6,3.5,3.5v6.9h3.3c1.9,0,3.5,1.6,3.5,3.5v7.2h1.3V88.9z"/>
	<path class="st0" d="M110.4,104.1h-2.5c-2.4,0-4.4-2-4.4-4.4V89.3c0-0.2-0.2-0.4-0.4-0.4h-5.6c-2.4,0-4.4-2-4.4-4.4V74.1
		c0-0.2-0.2-0.4-0.4-0.4H87c-2.4,0-4.4-2-4.4-4.4V56.8c0-2.4,2-4.4,4.4-4.4h5.6c0.2,0,0.4-0.2,0.4-0.4V41.6c0-2.4,2-4.4,4.4-4.4h5.6
		c0.2,0,0.4-0.2,0.4-0.4V26.5c0-1.2,0.5-2.3,1.3-3.1c0.8-0.8,4,2.7,4,2.7h-0.9c-0.2,0-0.4,0.2-0.4,0.4v10.4c0,2.4-2,4.4-4.4,4.4
		h-5.6c-0.2,0-0.4,0.2-0.4,0.4V52c0,2.4-2,4.4-4.4,4.4H87c-0.2,0-0.4,0.2-0.4,0.4v12.5c0,0.2,0.2,0.4,0.4,0.4h5.6
		c2.4,0,4.4,2,4.4,4.4v10.4c0,0.2,0.2,0.4,0.4,0.4h5.6c2.4,0,4.4,2,4.4,4.4v10.4c0,0.2,0.2,0.4,0.4,0.4h5.7
		C113.3,101.7,112.5,103.1,110.4,104.1z"/>
	<path class="st0" d="M36.1,88.9h1.8c1.9,0,3.5-1.6,3.5-3.5v-7.2h3.3c1.9,0,3.5-1.6,3.5-3.5v-6.9h3.5c1.9,0,3.5-1.6,3.5-3.5v-3.2
		c0-1.9-1.6-3.5-3.5-3.5h-3.5v-6.9c0-1.9-1.6-3.5-3.5-3.5h-3.3V40c0-1.9-1.6-3.5-3.5-3.5h-1.8v4h1.3v7.2c0,1.9,1.6,3.5,3.5,3.5h3.3
		v6.9c0,1.9,1.6,3.5,3.5,3.5h3.5v2.2h-3.5c-1.9,0-3.5,1.6-3.5,3.5v6.9h-3.3c-1.9,0-3.5,1.6-3.5,3.5v7.2h-1.3V88.9z"/>
	<path class="st0" d="M39.9,104.1h2.5c2.4,0,4.4-2,4.4-4.4V89.3c0-0.2,0.2-0.4,0.4-0.4h5.6c2.4,0,4.4-2,4.4-4.4V74.1
		c0-0.2,0.2-0.4,0.4-0.4h5.6c2.4,0,4.4-2,4.4-4.4V56.8c0-2.4-2-4.4-4.4-4.4h-5.6c-0.2,0-0.4-0.2-0.4-0.4V41.6c0-2.4-2-4.4-4.4-4.4
		h-5.6c-0.2,0-0.4-0.2-0.4-0.4V26.5c0-1.2-0.5-2.3-1.3-3.1c-0.8-0.8-4,2.7-4,2.7h0.9c0.2,0,0.4,0.2,0.4,0.4v10.4
		c0,2.4,2,4.4,4.4,4.4h5.6c0.2,0,0.4,0.2,0.4,0.4V52c0,2.4,2,4.4,4.4,4.4h5.6c0.2,0,0.4,0.2,0.4,0.4v12.5c0,0.2-0.2,0.4-0.4,0.4
		h-5.6c-2.4,0-4.4,2-4.4,4.4v10.4c0,0.2-0.2,0.4-0.4,0.4h-5.6c-2.4,0-4.4,2-4.4,4.4v10.4c0,0.2-0.2,0.4-0.4,0.4h-5.7L39.9,104.1z"/>
</g>
</svg>
