<?xml version="1.0" encoding="utf-8"?>
<!-- Generator: Adobe Illustrator 22.1.0, SVG Export Plug-In . SVG Version: 6.00 Build 0)  -->
<svg version="1.1" id="Capa_1" xmlns="http://www.w3.org/2000/svg" xmlns:xlink="http://www.w3.org/1999/xlink" x="0px" y="0px"
	 viewBox="0 0 68 88" style="enable-background:new 0 0 68 88;" xml:space="preserve">
<style type="text/css">
	.st0{fill:#1D1D1B;}
</style>
<g>
	<path class="st0" d="M60.9,68.2c-0.6-0.4-1.3-0.7-2-0.9c2.7-1.9,4.3-4.5,4.3-8.4V20c0-9.8-13-17.8-29.1-17.8C18,2.2,5,10.2,5,20v39
		c0,3.1,1.5,5.7,4.5,7.7c-0.9,0.2-1.7,0.5-2.5,0.9c-4.2,2.6-5.5,8.1-3,12.3c2.1,3.4,5.7,5.2,9.4,5.2c2,0,3.9-0.5,5.7-1.6
		c2-1.2,3.6-2.9,4.7-4.9v0.8c0,2.9,4.4,5.1,10.2,5.1c5.8,0,10.1-2.2,10.2-5c1.1,1.8,2.6,3.4,4.5,4.6c1.8,1.1,3.8,1.6,5.7,1.6
		c3.7,0,7.3-1.9,9.4-5.2C66.5,76.3,65.2,70.8,60.9,68.2z M6.9,59V20c0-8.7,12.2-15.8,27.2-15.8c15,0,27.2,7.1,27.2,15.8v39
		c0,7.5-7.2,10.5-24.8,10.5C16.8,69.5,6.9,66,6.9,59z M18.3,82c-4.3,2.6-10,1.3-12.6-3c-2.1-3.4-1-7.8,2.4-9.9
		c2.6-1.6,6-0.8,7.6,1.8c1.2,2,0.6,4.6-1.4,5.9c-1.5,0.9-3.5,0.5-4.4-1.1c-0.7-1.1-0.3-2.6,0.8-3.3c0.8-0.5,1.9-0.2,2.4,0.6
		c0.3,0.6,0.2,1.3-0.4,1.7c-0.4,0.2-0.9,0.1-1.1-0.3l-0.4-0.7l-1.5,0.9l0.4,0.7c0.7,1.2,2.3,1.6,3.6,0.9c1.4-0.9,1.9-2.7,1-4.1
		c-1-1.7-3.2-2.2-4.9-1.2c-2,1.2-2.6,3.8-1.4,5.8c1.5,2.4,4.6,3.1,6.9,1.7c2.8-1.8,3.7-5.5,2-8.3c-0.1-0.1-0.2-0.3-0.3-0.4
		c2,0.5,4.3,0.9,6.9,1.2c0,0,0,0,0,0C24.3,75.3,22.1,79.6,18.3,82z M34.1,82.3c-4.7,0-7.9-1.7-7.9-2.8V71c3.1,0.3,6.5,0.4,10.2,0.4
		c1.9,0,3.7,0,5.6-0.1v8.2C42,80.6,38.8,82.3,34.1,82.3z M62.4,79.6c-2.7,4.3-8.3,5.7-12.6,3c-3-1.8-5-4.9-5.5-8.3v-3.2
		c2.4-0.2,4.7-0.4,6.7-0.8c-0.1,0.1-0.1,0.2-0.2,0.3c-1.7,2.8-0.8,6.6,2,8.3c2.4,1.4,5.5,0.7,6.9-1.7c1.2-2,0.6-4.6-1.4-5.8
		c-1.7-1-3.8-0.5-4.9,1.2c-0.9,1.4-0.4,3.3,1,4.1c1.2,0.7,2.8,0.4,3.6-0.9l0.4-0.7l-1.5-0.9L56.5,75c-0.2,0.4-0.7,0.5-1.1,0.3
		c-0.6-0.4-0.7-1.1-0.4-1.7c0.5-0.8,1.6-1.1,2.4-0.6c1.1,0.7,1.5,2.2,0.8,3.3c-0.9,1.5-2.9,2-4.4,1.1c-2-1.2-2.6-3.9-1.4-5.9
		c1.6-2.6,5-3.4,7.6-1.8C63.4,71.8,64.4,76.2,62.4,79.6z"/>
	<path class="st0" d="M58.6,55.6V22.4c0-8.4-11-15.3-24.6-15.3S9.5,14,9.5,22.4v33.2c0,7.2,8.7,10.7,26.5,10.7
		C47.8,66.3,58.6,65,58.6,55.6z M50,37.6h-2v-1.3h2c1.1,0,2-0.9,2-2v-4H54c1.1,0,2-0.9,2-2v-4.2h0.7v25.7v0H56l0-4.2
		c0-1.1-0.9-2-2-2H52v-4C52,38.5,51.1,37.6,50,37.6z M56.7,21.8h-1c-1.1,0-2,0.9-2,2V28h-1.9c-1.1,0-2,0.9-2,2v4h-2
		c-1.1,0-2,0.9-2,2v1.9c0,1.1,0.9,2,2,2h2v4c0,1.1,0.9,2,2,2h1.9l0,4.2c0,1.1,0.9,2,2,2h1v3.6c0,1.1-0.2,2.1-0.6,3H53
		c-0.1,0-0.2-0.1-0.2-0.2v-6c0-1.4-1.1-2.5-2.5-2.5H47c-0.1,0-0.2-0.1-0.2-0.2v-6c0-1.4-1.1-2.5-2.5-2.5H41c-0.1,0-0.2-0.1-0.2-0.2
		v-7.2c0-0.1,0.1-0.2,0.2-0.2h3.2c1.4,0,2.5-1.1,2.5-2.5v-6c0-0.1,0.1-0.2,0.2-0.2h3.2c1.4,0,2.5-1.1,2.5-2.5v-6
		c0-0.1,0.1-0.2,0.2-0.2h0.5c0,0,0,0,0,0c0,0,0,0,0,0C55.4,17.4,56.5,19.5,56.7,21.8z M51.5,13.8c0.1,0.1,0.2,0.2,0.3,0.3
		c-0.2-0.1-0.5-0.2-0.6-0.1c-0.5,0.5-0.7,1.1-0.7,1.8v6c0,0.1-0.1,0.2-0.2,0.2H47c-1.4,0-2.5,1.1-2.5,2.5v6c0,0.1-0.1,0.2-0.2,0.2
		H41c-1.4,0-2.5,1.1-2.5,2.5v2.5h-8.7v-2.5c0-1.4-1.1-2.5-2.5-2.5h-3.2c-0.1,0-0.2-0.1-0.2-0.2v-6c0-1.4-1.1-2.5-2.5-2.5h-3.2
		c-0.1,0-0.2-0.1-0.2-0.2v-6c0-0.7-0.3-1.3-0.7-1.8c-0.1-0.1-0.4-0.1-0.6,0.1C20.4,11,26.9,9,34.1,9C41.1,9,47.3,10.9,51.5,13.8z
		 M11.4,52.1v-28h0.7v4.2c0,1.1,0.9,2,2,2h1.9v4c0,1.1,0.9,2,2,2h2v1.3h-2c-1.1,0-2,0.9-2,2v4h-1.9c-1.1,0-2,0.9-2,2l0,4.2h-0.7
		L11.4,52.1h1c1.1,0,2-0.9,2-2l0-4.2h1.9c1.1,0,2-0.9,2-2v-4h2c1.1,0,2-0.9,2-2V36c0-1.1-0.9-2-2-2h-2v-4c0-1.1-0.9-2-2-2h-1.9v-4.2
		c0-1.1-0.9-2-2-2h-1c0.2-2.2,1.3-4.4,3.1-6.2h0.5c0.1,0,0.2,0.1,0.2,0.2v6c0,1.4,1.1,2.5,2.5,2.5h3.2c0.1,0,0.2,0.1,0.2,0.2v6
		c0,1.4,1.1,2.5,2.5,2.5h3.2c0.1,0,0.2,0.1,0.2,0.2v7.2c0,0.1-0.1,0.2-0.2,0.2h-3.2c-1.4,0-2.5,1.1-2.5,2.5v6c0,0.1-0.1,0.2-0.2,0.2
		h-3.2c-1.4,0-2.5,1.1-2.5,2.5v6c0,0.1-0.1,0.2-0.2,0.2h-2.8c-0.6-0.9-0.9-1.9-0.9-3V52.1z M14.8,60.9h0.4c1.4,0,2.5-1.1,2.5-2.5v-6
		c0-0.1,0.1-0.2,0.2-0.2h3.2c1.4,0,2.5-1.1,2.5-2.5v-6c0-0.1,0.1-0.2,0.2-0.2h3.2c1.4,0,2.5-1.1,2.5-2.5v-2.5h8.7v2.5
		c0,1.4,1.1,2.5,2.5,2.5h3.2c0.1,0,0.2,0.1,0.2,0.2v6c0,1.4,1.1,2.5,2.5,2.5h3.2c0.1,0,0.2,0.1,0.2,0.2v6c0,1.4,1.1,2.5,2.5,2.5h1.4
		c-2.9,2.5-8.8,3.6-18.3,3.6C25.7,64.4,18.6,63.2,14.8,60.9z"/>
</g>
</svg>
